HIERARCHY
ROOT Hips
{
	OFFSET 0.000000 0.000000 0.000000
	CHANNELS 6 Xposition Yposition Zposition Zrotation Yrotation Xrotation 
	JOINT LHipJoint
	{
		OFFSET 0.000000 0.000000 0.000000
		CHANNELS 3 Zrotation Yrotation Xrotation
		JOINT LeftUpLeg
		{
			OFFSET 1.363060 -1.794630 0.839290
			CHANNELS 3 Zrotation Yrotation Xrotation
			JOINT LeftLeg
			{
				OFFSET 2.448110 -6.726130 0.000000
				CHANNELS 3 Zrotation Yrotation Xrotation
				JOINT LeftFoot
				{
					OFFSET 2.562200 -7.039590 0.000000
					CHANNELS 3 Zrotation Yrotation Xrotation
					JOINT LeftToeBase
					{
						OFFSET 0.157640 -0.433110 2.322550
						CHANNELS 3 Zrotation Yrotation Xrotation
						End Site
						{
							OFFSET 0.000000 0.000000 0.000000
						}
					}
				}
			}
		}
	}
	JOINT RHipJoint
	{
		OFFSET 0.000000 0.000000 0.000000
		CHANNELS 3 Zrotation Yrotation Xrotation
		JOINT RightUpLeg
		{
			OFFSET -1.305520 -1.794630 0.839290
			CHANNELS 3 Zrotation Yrotation Xrotation
			JOINT RightLeg
			{
				OFFSET -2.542530 -6.985550 0.000000
				CHANNELS 3 Zrotation Yrotation Xrotation
				JOINT RightFoot
				{
					OFFSET -2.568260 -7.056230 0.000000
					CHANNELS 3 Zrotation Yrotation Xrotation
					JOINT RightToeBase
					{
						OFFSET -0.164730 -0.452590 2.363150
						CHANNELS 3 Zrotation Yrotation Xrotation
						End Site
						{
							OFFSET 0.000000 0.000000 0.000000
						}
					}
				}
			}
		}
	}
}
MOTION
Frames: 25
Frame Time: 0.008333
-12.080211 16.992518 0.121793 123.568589 87.176934 145.563843 -12.083446 4.452843 1.816789 -3.868599 6.772458 -4.385181 -1.518933 0.400216 15.357181 -0.256238 -8.553779 12.191909 -2.349600 -0.000000 -81.387100 8.455265 -1.590456 3.768332 10.139642 -0.393052 -45.952949 3.470401 -1.254049 22.021213 0.955119 5.933566 -0.146249 0.519800 0.000000 -40.055000
-11.906958 16.959606 0.150580 122.172850 86.982844 144.088937 -12.143977 4.489576 1.847654 -3.677928 6.568907 -4.504707 -1.413001 0.488476 16.771624 -0.228359 -9.051330 12.742864 -2.588700 0.000001 -81.703400 8.430672 -1.570572 3.688185 9.925479 -0.254421 -46.301513 3.296092 -1.482787 24.540181 0.802732 5.540147 -1.906920 0.371600 -0.000000 -36.434000
-11.737728 16.933964 0.176053 123.151967 86.805329 144.954931 -12.176630 4.507358 1.877664 -3.426596 6.287783 -4.697249 -1.284943 0.581134 18.317235 -0.189463 -9.496447 13.400833 -2.844300 -0.000000 -81.716000 8.433277 -1.548391 3.566765 9.795000 -0.220885 -46.472870 3.136923 -1.701204 26.985922 0.647906 5.164452 -3.662812 0.250800 0.000000 -33.508400
-11.572371 16.916524 0.197872 126.491430 86.654378 148.159378 -12.176237 4.504212 1.902535 -3.099375 5.949530 -4.980659 -1.136078 0.675932 19.983453 -0.138350 -9.876239 14.172335 -3.115500 -0.000000 -81.336900 8.465426 -1.533212 3.420568 9.770098 -0.269191 -46.421553 3.006405 -1.890248 29.135956 0.499865 4.805210 -5.271016 0.159400 -0.000000 -31.543199
-11.410535 16.907857 0.216093 131.843296 86.535294 153.366856 -12.136795 4.487886 1.921862 -2.698753 5.571265 -5.366462 -0.973063 0.772779 21.747915 -0.073650 -10.165166 15.047959 -3.394000 0.000000 -80.468000 8.531327 -1.521617 3.260504 9.862827 -0.379690 -46.132487 2.911894 -2.036383 30.847660 0.366701 4.470076 -6.645033 0.095299 0.000000 -30.620400
-11.251807 16.907945 0.231204 138.503702 86.449619 159.886189 -12.061855 4.473867 1.939165 -2.246339 5.168612 -5.861300 -0.807604 0.874200 23.581008 0.005527 -10.332367 15.998778 -3.662700 0.000000 -79.013900 8.628655 -1.499553 3.092200 10.067357 -0.534092 -45.615196 2.853078 -2.128434 32.053258 0.253600 4.167782 -7.745810 0.053300 -0.000000 -30.652800
-11.095670 16.916360 0.243869 145.603836 86.395879 166.856357 -11.973662 4.475556 1.958389 -1.771583 4.762561 -6.462236 -0.652030 0.983293 25.451707 0.098736 -10.354921 16.980944 -3.900600 -0.000000 -76.932800 8.738740 -1.455616 2.917369 10.362081 -0.715568 -44.887148 2.824560 -2.157689 32.740499 0.161341 3.898678 -8.571966 0.027400 0.000000 -31.413400
-10.941649 16.932243 0.255121 152.158649 86.348547 173.295645 -11.905887 4.491874 1.983898 -1.318855 4.361005 -7.156814 -0.512885 1.098514 27.333153 0.202621 -10.213122 17.937912 -4.080400 0.000000 -74.222100 8.830604 -1.395132 2.739388 10.700095 -0.922297 -43.981958 2.819325 -2.124179 32.941255 0.087146 3.655184 -9.148336 0.012500 0.000000 -32.622699
-10.789205 16.954563 0.265891 157.574659 86.272969 178.609535 -11.877139 4.507852 2.015146 -0.917496 3.968911 -7.926430 -0.389407 1.213520 29.207450 0.311201 -9.902949 18.809844 -4.177800 -0.000000 -70.988899 8.883757 -1.337716 2.566557 11.038072 -1.154243 -42.934159 2.832325 -2.037639 32.705668 0.024590 3.414859 -9.513380 0.004301 0.000000 -33.988500
-10.637864 16.982122 0.277417 161.465533 86.130376 -177.591762 -11.880462 4.506003 2.049433 -0.598344 3.578236 -8.747734 -0.277052 1.319941 31.059282 0.417328 -9.422311 19.539330 -4.171300 0.000001 -67.404800 8.900956 -1.301637 2.408571 11.329952 -1.420126 -41.785426 2.858856 -1.914963 32.107428 -0.032536 3.158268 -9.715148 -0.000100 -0.000000 -35.252900
-10.487295 17.013800 0.290434 163.902107 85.914189 -175.238168 -11.895624 4.479361 2.082494 -0.372824 3.191044 -9.605354 -0.173397 1.413709 32.875629 0.515512 -8.784284 20.079533 -4.052500 -0.000001 -63.719499 8.899623 -1.291349 2.273996 11.551090 -1.708129 -40.568934 2.892581 -1.769638 31.223075 -0.090566 2.862033 -9.795240 -0.003100 0.000000 -36.235500
-10.337181 17.048633 0.305282 165.151363 85.641506 -174.060091 -11.907052 4.429662 2.111129 -0.241456 2.815813 -10.491182 -0.078238 1.494799 34.642407 0.602703 -8.011604 20.400488 -3.826400 -0.000000 -60.223600 8.895465 -1.301970 2.168284 11.691396 -1.991766 -39.309548 2.925691 -1.610034 30.127475 -0.154874 2.505248 -9.786201 -0.006599 -0.000000 -36.848200
-10.187378 17.085775 0.322252 165.370164 85.327044 -173.898251 -11.905363 4.360181 2.134403 -0.214310 2.454427 -11.396814 0.009063 1.563290 36.345210 0.677313 -7.126925 20.488877 -3.505500 0.000000 -57.142400 8.900309 -1.327308 2.092840 11.736910 -2.258033 -38.037211 2.951040 -1.444694 28.903715 -0.227154 2.087616 -9.718662 -0.012100 -0.000000 -37.071700
-10.037855 17.124632 0.341297 164.754627 84.990556 -174.553661 -11.888714 4.275263 2.152053 -0.293352 2.112511 -12.316869 0.088617 1.620132 37.969400 0.739416 -6.158138 20.348287 -3.110500 0.000001 -54.642500 8.919229 -1.361619 2.046525 11.684733 -2.493923 -36.774823 2.963303 -1.279811 27.622518 -0.307053 1.617886 -9.613673 -0.020400 0.000000 -36.955500
-9.888737 17.164776 0.362015 163.501448 84.651999 -175.829169 -11.860211 4.178874 2.163679 -0.472669 1.798845 -13.246432 0.160084 1.666748 39.499924 0.790293 -5.133823 19.995788 -2.665800 -0.000000 -52.792500 8.951967 -1.400771 2.025754 11.541937 -2.690785 -35.537823 2.959892 -1.119851 26.337322 -0.391939 1.114079 -9.481544 -0.032300 -0.000001 -36.599500
-9.740153 17.205859 0.384065 161.687029 84.320819 -177.649583 -11.823131 4.073866 2.170827 -0.753530 1.515987 -14.178367 0.223606 1.703119 40.920063 0.831891 -4.073867 19.459318 -2.192999 -0.000000 -51.591700 8.998155 -1.442878 2.023353 11.314440 -2.866869 -34.348258 2.941818 -0.971037 25.101790 -0.474422 0.618620 -9.329507 -0.047299 0.000000 -36.111500
-9.592531 17.247819 0.406479 159.617540 84.024067 -179.713733 -11.785266 3.964323 2.168606 -1.100750 1.288765 -15.105456 0.276518 1.733552 42.215588 0.866590 -3.008625 18.765952 -1.716800 -0.000001 -50.887900 9.049383 -1.486002 2.035302 11.033736 -2.995681 -33.181450 2.910535 -0.829569 23.899063 -0.552564 0.134583 -9.136938 -0.066799 0.000000 -35.664600
-9.446129 17.290513 0.428735 157.366230 83.768932 178.043591 -11.749004 3.852047 2.155626 -1.502123 1.123327 -16.012054 0.318661 1.758578 43.363535 0.898093 -1.945600 17.969098 -1.251600 0.000000 -50.714000 9.103228 -1.529981 2.053293 10.715679 -3.093700 -32.030245 2.870177 -0.696543 22.728634 -0.619202 -0.305472 -8.888851 -0.091100 0.000000 -35.385300
-9.301115 17.333640 0.450338 155.005055 83.559226 175.687936 -11.715724 3.739481 2.132526 -1.943770 1.025191 -16.890092 0.349604 1.778690 44.350266 0.929164 -0.889667 17.105962 -0.806400 -0.000001 -50.871400 9.158066 -1.575510 2.068730 10.381931 -3.191255 -30.898768 2.826957 -0.573812 21.596307 -0.665813 -0.661115 -8.573035 -0.119600 0.000000 -35.331800
-9.157689 17.376983 0.470799 152.656602 83.402509 173.332083 -11.686488 3.628017 2.095623 -2.401877 1.005466 -17.725704 0.368909 1.795372 45.162746 0.962801 0.155762 16.218380 -0.387200 0.000000 -51.261900 9.210751 -1.623011 2.076700 10.053632 -3.289468 -29.761632 2.784793 -0.458085 20.467420 -0.690002 -0.926736 -8.168885 -0.152899 0.000000 -35.565200
-9.015949 17.420160 0.489858 150.393450 83.300797 171.039704 -11.661115 3.518441 2.041803 -2.858402 1.072356 -18.508446 0.376332 1.809655 45.798789 1.000304 1.187377 15.324056 0.003100 0.000001 -51.597000 9.259705 -1.673363 2.073266 9.746606 -3.394438 -28.600456 2.746859 -0.347418 19.316701 -0.690764 -1.100256 -7.663597 -0.190700 0.000001 -36.092600
-8.875779 17.462608 0.507467 148.219142 83.250105 168.809725 -11.638709 3.410944 1.971586 -3.307234 1.222940 -19.231638 0.373068 1.820819 46.255136 1.043991 2.212489 14.456525 0.367100 -0.000000 -51.891800 9.304932 -1.727079 2.056025 9.466191 -3.518121 -27.412039 2.715375 -0.241742 18.137596 -0.668086 -1.178714 -7.058478 -0.230800 0.000000 -36.859600
-8.737057 17.503717 0.523771 146.131910 83.246182 166.636542 -11.618686 3.305568 1.884044 -3.742616 1.456592 -19.892705 0.359283 1.829291 46.544048 1.093429 3.226964 13.609637 0.704500 0.000001 -51.883900 9.346119 -1.784307 2.024945 9.213827 -3.660424 -26.191039 2.690445 -0.140629 16.925301 -0.625304 -1.174002 -6.360535 -0.271100 -0.000001 -37.802201
-8.599539 17.542818 0.538959 144.086877 83.282595 164.476181 -11.600396 3.202302 1.780854 -4.167379 1.765173 -20.495118 0.335521 1.834904 46.680294 1.148236 4.228625 12.778151 1.015699 0.000000 -51.496699 9.383600 -1.844593 1.981643 8.983917 -3.820379 -24.944491 2.671034 -0.045035 15.693068 -0.566732 -1.098904 -5.588486 -0.308500 0.000000 -38.835500
-8.462822 17.579189 0.553401 141.977056 83.348881 162.228081 -11.583067 3.101525 1.666991 -4.594536 2.132021 -21.049209 0.302546 1.836883 46.680581 1.208177 5.217984 11.957384 1.301500 0.000000 -50.817800 9.418572 -1.906727 1.928566 8.763447 -4.002174 -23.696361 2.655748 0.042428 14.476050 -0.496041 -0.958651 -4.773842 -0.338600 -0.000001 -39.865100
